<mxfile host="Electron" agent="Mozilla/5.0 (Windows NT 10.0; Win64; x64) AppleWebKit/537.36 (KHTML, like Gecko) draw.io/24.7.17 Chrome/128.0.6613.36 Electron/32.0.1 Safari/537.36" version="24.7.17">
  <diagram name="Page-1" id="58cdce13-f638-feb5-8d6f-7d28b1aa9fa0">
    <mxGraphModel dx="2320" dy="1308" grid="1" gridSize="10" guides="1" tooltips="1" connect="1" arrows="1" fold="1" page="1" pageScale="1" pageWidth="1100" pageHeight="850" background="none" math="0" shadow="0">
      <root>
        <mxCell id="0" />
        <mxCell id="1" parent="0" />
        <mxCell id="D216uD_KerBpteAYRp9T-1" value="Router" style="sketch=0;aspect=fixed;pointerEvents=1;shadow=0;dashed=0;html=1;strokeColor=none;labelPosition=center;verticalLabelPosition=bottom;verticalAlign=top;align=center;fillColor=#00188D;shape=mxgraph.mscae.enterprise.gateway" parent="1" vertex="1">
          <mxGeometry x="290" y="1020" width="50" height="50" as="geometry" />
        </mxCell>
        <mxCell id="D216uD_KerBpteAYRp9T-6" value="" style="rounded=0;whiteSpace=wrap;html=1;movable=0;resizable=0;rotatable=0;deletable=0;editable=0;locked=1;connectable=0;" parent="1" vertex="1">
          <mxGeometry x="160" y="100" width="720" height="350" as="geometry" />
        </mxCell>
        <mxCell id="D216uD_KerBpteAYRp9T-3" value="" style="sketch=0;aspect=fixed;pointerEvents=1;shadow=0;dashed=0;html=1;strokeColor=none;labelPosition=center;verticalLabelPosition=bottom;verticalAlign=top;align=center;fillColor=#00188D;shape=mxgraph.azure.laptop" parent="1" vertex="1">
          <mxGeometry x="470" y="170" width="50" height="30" as="geometry" />
        </mxCell>
        <mxCell id="D216uD_KerBpteAYRp9T-7" value="" style="sketch=0;aspect=fixed;pointerEvents=1;shadow=0;dashed=0;html=1;strokeColor=none;labelPosition=center;verticalLabelPosition=bottom;verticalAlign=top;align=center;fillColor=#00188D;shape=mxgraph.azure.laptop" parent="1" vertex="1">
          <mxGeometry x="350" y="410" width="50" height="30" as="geometry" />
        </mxCell>
        <mxCell id="D216uD_KerBpteAYRp9T-8" value="" style="sketch=0;aspect=fixed;pointerEvents=1;shadow=0;dashed=0;html=1;strokeColor=none;labelPosition=center;verticalLabelPosition=bottom;verticalAlign=top;align=center;fillColor=#00188D;shape=mxgraph.azure.laptop" parent="1" vertex="1">
          <mxGeometry x="300" y="335" width="50" height="30" as="geometry" />
        </mxCell>
        <mxCell id="D216uD_KerBpteAYRp9T-9" value="" style="sketch=0;aspect=fixed;pointerEvents=1;shadow=0;dashed=0;html=1;strokeColor=none;labelPosition=center;verticalLabelPosition=bottom;verticalAlign=top;align=center;fillColor=#00188D;shape=mxgraph.azure.laptop" parent="1" vertex="1">
          <mxGeometry x="470" y="260" width="50" height="30" as="geometry" />
        </mxCell>
        <mxCell id="D216uD_KerBpteAYRp9T-10" value="" style="sketch=0;aspect=fixed;pointerEvents=1;shadow=0;dashed=0;html=1;strokeColor=none;labelPosition=center;verticalLabelPosition=bottom;verticalAlign=top;align=center;fillColor=#00188D;shape=mxgraph.azure.laptop" parent="1" vertex="1">
          <mxGeometry x="250" y="410" width="50" height="30" as="geometry" />
        </mxCell>
        <mxCell id="D216uD_KerBpteAYRp9T-11" value="" style="sketch=0;aspect=fixed;pointerEvents=1;shadow=0;dashed=0;html=1;strokeColor=none;labelPosition=center;verticalLabelPosition=bottom;verticalAlign=top;align=center;fillColor=#00188D;shape=mxgraph.azure.laptop" parent="1" vertex="1">
          <mxGeometry x="720" y="335" width="50" height="30" as="geometry" />
        </mxCell>
        <mxCell id="D216uD_KerBpteAYRp9T-12" value="" style="sketch=0;aspect=fixed;pointerEvents=1;shadow=0;dashed=0;html=1;strokeColor=none;labelPosition=center;verticalLabelPosition=bottom;verticalAlign=top;align=center;fillColor=#00188D;shape=mxgraph.azure.laptop" parent="1" vertex="1">
          <mxGeometry x="650" y="250" width="50" height="30" as="geometry" />
        </mxCell>
        <mxCell id="D216uD_KerBpteAYRp9T-13" value="" style="sketch=0;aspect=fixed;pointerEvents=1;shadow=0;dashed=0;html=1;strokeColor=none;labelPosition=center;verticalLabelPosition=bottom;verticalAlign=top;align=center;fillColor=#00188D;shape=mxgraph.azure.laptop" parent="1" vertex="1">
          <mxGeometry x="170" y="410" width="50" height="30" as="geometry" />
        </mxCell>
        <mxCell id="D216uD_KerBpteAYRp9T-14" value="" style="sketch=0;aspect=fixed;pointerEvents=1;shadow=0;dashed=0;html=1;strokeColor=none;labelPosition=center;verticalLabelPosition=bottom;verticalAlign=top;align=center;fillColor=#00188D;shape=mxgraph.azure.laptop" parent="1" vertex="1">
          <mxGeometry x="300" y="260" width="50" height="30" as="geometry" />
        </mxCell>
        <mxCell id="D216uD_KerBpteAYRp9T-16" value="" style="sketch=0;aspect=fixed;pointerEvents=1;shadow=0;dashed=0;html=1;strokeColor=none;labelPosition=center;verticalLabelPosition=bottom;verticalAlign=top;align=center;fillColor=#00188D;shape=mxgraph.azure.laptop" parent="1" vertex="1">
          <mxGeometry x="610" y="335" width="50" height="30" as="geometry" />
        </mxCell>
        <mxCell id="D216uD_KerBpteAYRp9T-17" value="" style="sketch=0;aspect=fixed;pointerEvents=1;shadow=0;dashed=0;html=1;strokeColor=none;labelPosition=center;verticalLabelPosition=bottom;verticalAlign=top;align=center;fillColor=#00188D;shape=mxgraph.azure.laptop" parent="1" vertex="1">
          <mxGeometry x="680" y="410" width="50" height="30" as="geometry" />
        </mxCell>
        <mxCell id="D216uD_KerBpteAYRp9T-18" value="" style="sketch=0;aspect=fixed;pointerEvents=1;shadow=0;dashed=0;html=1;strokeColor=none;labelPosition=center;verticalLabelPosition=bottom;verticalAlign=top;align=center;fillColor=#00188D;shape=mxgraph.azure.laptop" parent="1" vertex="1">
          <mxGeometry x="820" y="410" width="50" height="30" as="geometry" />
        </mxCell>
        <mxCell id="D216uD_KerBpteAYRp9T-19" value="" style="sketch=0;aspect=fixed;pointerEvents=1;shadow=0;dashed=0;html=1;strokeColor=none;labelPosition=center;verticalLabelPosition=bottom;verticalAlign=top;align=center;fillColor=#00188D;shape=mxgraph.azure.laptop" parent="1" vertex="1">
          <mxGeometry x="820" y="335" width="50" height="30" as="geometry" />
        </mxCell>
        <mxCell id="D216uD_KerBpteAYRp9T-20" value="" style="sketch=0;aspect=fixed;pointerEvents=1;shadow=0;dashed=0;html=1;strokeColor=none;labelPosition=center;verticalLabelPosition=bottom;verticalAlign=top;align=center;fillColor=#00188D;shape=mxgraph.mscae.enterprise.device" parent="1" vertex="1">
          <mxGeometry x="470" y="365" width="50" height="26" as="geometry" />
        </mxCell>
        <mxCell id="D216uD_KerBpteAYRp9T-21" value="" style="sketch=0;aspect=fixed;pointerEvents=1;shadow=0;dashed=0;html=1;strokeColor=none;labelPosition=center;verticalLabelPosition=bottom;verticalAlign=top;align=center;fillColor=#00188D;shape=mxgraph.azure.laptop" parent="1" vertex="1">
          <mxGeometry x="210" y="335" width="50" height="30" as="geometry" />
        </mxCell>
        <mxCell id="D216uD_KerBpteAYRp9T-22" value="&lt;font style=&quot;font-size: 18px;&quot;&gt;&lt;b&gt;North Zone Offices with 14 computers&amp;nbsp;&lt;/b&gt;&lt;/font&gt;" style="rounded=0;whiteSpace=wrap;html=1;" parent="1" vertex="1">
          <mxGeometry x="220" y="100" width="580" height="30" as="geometry" />
        </mxCell>
        <mxCell id="D216uD_KerBpteAYRp9T-23" value="" style="rounded=0;whiteSpace=wrap;html=1;" parent="1" vertex="1">
          <mxGeometry x="820" y="520" width="610" height="230" as="geometry" />
        </mxCell>
        <mxCell id="D216uD_KerBpteAYRp9T-24" value="" style="sketch=0;aspect=fixed;pointerEvents=1;shadow=0;dashed=0;html=1;strokeColor=none;labelPosition=center;verticalLabelPosition=bottom;verticalAlign=top;align=center;fillColor=#00188D;shape=mxgraph.azure.laptop" parent="1" vertex="1">
          <mxGeometry x="850" y="540" width="50" height="30" as="geometry" />
        </mxCell>
        <mxCell id="D216uD_KerBpteAYRp9T-25" value="" style="sketch=0;aspect=fixed;pointerEvents=1;shadow=0;dashed=0;html=1;strokeColor=none;labelPosition=center;verticalLabelPosition=bottom;verticalAlign=top;align=center;fillColor=#00188D;shape=mxgraph.azure.laptop" parent="1" vertex="1">
          <mxGeometry x="1130" y="540" width="50" height="30" as="geometry" />
        </mxCell>
        <mxCell id="D216uD_KerBpteAYRp9T-26" value="" style="sketch=0;aspect=fixed;pointerEvents=1;shadow=0;dashed=0;html=1;strokeColor=none;labelPosition=center;verticalLabelPosition=bottom;verticalAlign=top;align=center;fillColor=#00188D;shape=mxgraph.azure.laptop" parent="1" vertex="1">
          <mxGeometry x="920" y="540" width="50" height="30" as="geometry" />
        </mxCell>
        <mxCell id="D216uD_KerBpteAYRp9T-27" value="" style="sketch=0;aspect=fixed;pointerEvents=1;shadow=0;dashed=0;html=1;strokeColor=none;labelPosition=center;verticalLabelPosition=bottom;verticalAlign=top;align=center;fillColor=#00188D;shape=mxgraph.azure.laptop" parent="1" vertex="1">
          <mxGeometry x="990" y="540" width="50" height="30" as="geometry" />
        </mxCell>
        <mxCell id="D216uD_KerBpteAYRp9T-28" value="" style="sketch=0;aspect=fixed;pointerEvents=1;shadow=0;dashed=0;html=1;strokeColor=none;labelPosition=center;verticalLabelPosition=bottom;verticalAlign=top;align=center;fillColor=#00188D;shape=mxgraph.azure.laptop" parent="1" vertex="1">
          <mxGeometry x="1060" y="540" width="50" height="30" as="geometry" />
        </mxCell>
        <mxCell id="D216uD_KerBpteAYRp9T-29" value="" style="sketch=0;aspect=fixed;pointerEvents=1;shadow=0;dashed=0;html=1;strokeColor=none;labelPosition=center;verticalLabelPosition=bottom;verticalAlign=top;align=center;fillColor=#00188D;shape=mxgraph.azure.laptop" parent="1" vertex="1">
          <mxGeometry x="850" y="630" width="50" height="30" as="geometry" />
        </mxCell>
        <mxCell id="D216uD_KerBpteAYRp9T-30" value="" style="sketch=0;aspect=fixed;pointerEvents=1;shadow=0;dashed=0;html=1;strokeColor=none;labelPosition=center;verticalLabelPosition=bottom;verticalAlign=top;align=center;fillColor=#00188D;shape=mxgraph.azure.laptop" parent="1" vertex="1">
          <mxGeometry x="990" y="630" width="50" height="30" as="geometry" />
        </mxCell>
        <mxCell id="D216uD_KerBpteAYRp9T-31" value="" style="sketch=0;aspect=fixed;pointerEvents=1;shadow=0;dashed=0;html=1;strokeColor=none;labelPosition=center;verticalLabelPosition=bottom;verticalAlign=top;align=center;fillColor=#00188D;shape=mxgraph.azure.laptop" parent="1" vertex="1">
          <mxGeometry x="1130" y="630" width="50" height="30" as="geometry" />
        </mxCell>
        <mxCell id="D216uD_KerBpteAYRp9T-32" value="" style="sketch=0;aspect=fixed;pointerEvents=1;shadow=0;dashed=0;html=1;strokeColor=none;labelPosition=center;verticalLabelPosition=bottom;verticalAlign=top;align=center;fillColor=#00188D;shape=mxgraph.azure.laptop" parent="1" vertex="1">
          <mxGeometry x="850" y="710" width="50" height="30" as="geometry" />
        </mxCell>
        <mxCell id="D216uD_KerBpteAYRp9T-33" value="" style="sketch=0;aspect=fixed;pointerEvents=1;shadow=0;dashed=0;html=1;strokeColor=none;labelPosition=center;verticalLabelPosition=bottom;verticalAlign=top;align=center;fillColor=#00188D;shape=mxgraph.azure.laptop" parent="1" vertex="1">
          <mxGeometry x="990" y="710" width="50" height="30" as="geometry" />
        </mxCell>
        <mxCell id="D216uD_KerBpteAYRp9T-34" value="" style="sketch=0;aspect=fixed;pointerEvents=1;shadow=0;dashed=0;html=1;strokeColor=none;labelPosition=center;verticalLabelPosition=bottom;verticalAlign=top;align=center;fillColor=#00188D;shape=mxgraph.azure.laptop" parent="1" vertex="1">
          <mxGeometry x="1130" y="710" width="50" height="30" as="geometry" />
        </mxCell>
        <mxCell id="D216uD_KerBpteAYRp9T-35" value="" style="sketch=0;aspect=fixed;pointerEvents=1;shadow=0;dashed=0;html=1;strokeColor=none;labelPosition=center;verticalLabelPosition=bottom;verticalAlign=top;align=center;fillColor=#00188D;shape=mxgraph.mscae.enterprise.device" parent="1" vertex="1">
          <mxGeometry x="1330" y="622" width="50" height="26" as="geometry" />
        </mxCell>
        <mxCell id="D216uD_KerBpteAYRp9T-36" value="" style="endArrow=none;html=1;rounded=0;entryX=0.08;entryY=0.5;entryDx=0;entryDy=0;entryPerimeter=0;" parent="1" target="D216uD_KerBpteAYRp9T-16" edge="1">
          <mxGeometry width="50" height="50" relative="1" as="geometry">
            <mxPoint x="520" y="380" as="sourcePoint" />
            <mxPoint x="560" y="325" as="targetPoint" />
          </mxGeometry>
        </mxCell>
        <mxCell id="D216uD_KerBpteAYRp9T-37" value="&lt;font style=&quot;font-size: 14px;&quot;&gt;&lt;b&gt;Corporate Office Building&lt;/b&gt;&lt;/font&gt;" style="rounded=0;whiteSpace=wrap;html=1;rotation=-90;" parent="1" vertex="1">
          <mxGeometry x="1340" y="602.5" width="205" height="65" as="geometry" />
        </mxCell>
        <mxCell id="D216uD_KerBpteAYRp9T-38" value="" style="rounded=0;whiteSpace=wrap;html=1;movable=1;resizable=1;rotatable=1;deletable=1;editable=1;locked=0;connectable=1;" parent="1" vertex="1">
          <mxGeometry x="820" y="800" width="620" height="590" as="geometry" />
        </mxCell>
        <mxCell id="D216uD_KerBpteAYRp9T-42" value="" style="rounded=1;whiteSpace=wrap;html=1;" parent="1" vertex="1">
          <mxGeometry x="850" y="810" width="170" height="570" as="geometry" />
        </mxCell>
        <mxCell id="D216uD_KerBpteAYRp9T-43" value="" style="rounded=1;whiteSpace=wrap;html=1;" parent="1" vertex="1">
          <mxGeometry x="1047.5" y="810" width="172.5" height="570" as="geometry" />
        </mxCell>
        <mxCell id="D216uD_KerBpteAYRp9T-44" value="" style="rounded=1;whiteSpace=wrap;html=1;" parent="1" vertex="1">
          <mxGeometry x="1240" y="810" width="170" height="570" as="geometry" />
        </mxCell>
        <mxCell id="D216uD_KerBpteAYRp9T-45" value="" style="sketch=0;aspect=fixed;pointerEvents=1;shadow=0;dashed=0;html=1;strokeColor=none;labelPosition=center;verticalLabelPosition=bottom;verticalAlign=top;align=center;fillColor=#00188D;shape=mxgraph.azure.laptop" parent="1" vertex="1">
          <mxGeometry x="850" y="840" width="50" height="30" as="geometry" />
        </mxCell>
        <mxCell id="D216uD_KerBpteAYRp9T-46" value="" style="sketch=0;aspect=fixed;pointerEvents=1;shadow=0;dashed=0;html=1;strokeColor=none;labelPosition=center;verticalLabelPosition=bottom;verticalAlign=top;align=center;fillColor=#00188D;shape=mxgraph.azure.laptop" parent="1" vertex="1">
          <mxGeometry x="970" y="840" width="50" height="30" as="geometry" />
        </mxCell>
        <mxCell id="D216uD_KerBpteAYRp9T-47" value="" style="sketch=0;aspect=fixed;pointerEvents=1;shadow=0;dashed=0;html=1;strokeColor=none;labelPosition=center;verticalLabelPosition=bottom;verticalAlign=top;align=center;fillColor=#00188D;shape=mxgraph.azure.laptop" parent="1" vertex="1">
          <mxGeometry x="850" y="920" width="50" height="30" as="geometry" />
        </mxCell>
        <mxCell id="D216uD_KerBpteAYRp9T-48" value="" style="sketch=0;aspect=fixed;pointerEvents=1;shadow=0;dashed=0;html=1;strokeColor=none;labelPosition=center;verticalLabelPosition=bottom;verticalAlign=top;align=center;fillColor=#00188D;shape=mxgraph.azure.laptop" parent="1" vertex="1">
          <mxGeometry x="970" y="1000" width="50" height="30" as="geometry" />
        </mxCell>
        <mxCell id="D216uD_KerBpteAYRp9T-49" value="" style="sketch=0;aspect=fixed;pointerEvents=1;shadow=0;dashed=0;html=1;strokeColor=none;labelPosition=center;verticalLabelPosition=bottom;verticalAlign=top;align=center;fillColor=#00188D;shape=mxgraph.azure.laptop" parent="1" vertex="1">
          <mxGeometry x="970" y="920" width="50" height="30" as="geometry" />
        </mxCell>
        <mxCell id="D216uD_KerBpteAYRp9T-50" value="" style="sketch=0;aspect=fixed;pointerEvents=1;shadow=0;dashed=0;html=1;strokeColor=none;labelPosition=center;verticalLabelPosition=bottom;verticalAlign=top;align=center;fillColor=#00188D;shape=mxgraph.azure.laptop" parent="1" vertex="1">
          <mxGeometry x="850" y="1000" width="50" height="30" as="geometry" />
        </mxCell>
        <mxCell id="D216uD_KerBpteAYRp9T-51" value="" style="sketch=0;aspect=fixed;pointerEvents=1;shadow=0;dashed=0;html=1;strokeColor=none;labelPosition=center;verticalLabelPosition=bottom;verticalAlign=top;align=center;fillColor=#00188D;shape=mxgraph.mscae.enterprise.device" parent="1" vertex="1">
          <mxGeometry x="900" y="1310" width="50" height="26" as="geometry" />
        </mxCell>
        <mxCell id="D216uD_KerBpteAYRp9T-52" value="" style="sketch=0;aspect=fixed;pointerEvents=1;shadow=0;dashed=0;html=1;strokeColor=none;labelPosition=center;verticalLabelPosition=bottom;verticalAlign=top;align=center;fillColor=#00188D;shape=mxgraph.mscae.enterprise.device" parent="1" vertex="1">
          <mxGeometry x="1320" y="1310" width="50" height="26" as="geometry" />
        </mxCell>
        <mxCell id="D216uD_KerBpteAYRp9T-53" value="" style="sketch=0;aspect=fixed;pointerEvents=1;shadow=0;dashed=0;html=1;strokeColor=none;labelPosition=center;verticalLabelPosition=bottom;verticalAlign=top;align=center;fillColor=#00188D;shape=mxgraph.mscae.enterprise.device" parent="1" vertex="1">
          <mxGeometry x="1108.75" y="1310" width="50" height="26" as="geometry" />
        </mxCell>
        <mxCell id="D216uD_KerBpteAYRp9T-54" value="" style="sketch=0;aspect=fixed;pointerEvents=1;shadow=0;dashed=0;html=1;strokeColor=none;labelPosition=center;verticalLabelPosition=bottom;verticalAlign=top;align=center;fillColor=#00188D;shape=mxgraph.azure.laptop" parent="1" vertex="1">
          <mxGeometry x="1050" y="830" width="50" height="30" as="geometry" />
        </mxCell>
        <mxCell id="D216uD_KerBpteAYRp9T-55" value="" style="sketch=0;aspect=fixed;pointerEvents=1;shadow=0;dashed=0;html=1;strokeColor=none;labelPosition=center;verticalLabelPosition=bottom;verticalAlign=top;align=center;fillColor=#00188D;shape=mxgraph.azure.laptop" parent="1" vertex="1">
          <mxGeometry x="1050" y="870" width="50" height="30" as="geometry" />
        </mxCell>
        <mxCell id="D216uD_KerBpteAYRp9T-56" value="" style="sketch=0;aspect=fixed;pointerEvents=1;shadow=0;dashed=0;html=1;strokeColor=none;labelPosition=center;verticalLabelPosition=bottom;verticalAlign=top;align=center;fillColor=#00188D;shape=mxgraph.azure.laptop" parent="1" vertex="1">
          <mxGeometry x="1050" y="910" width="50" height="30" as="geometry" />
        </mxCell>
        <mxCell id="D216uD_KerBpteAYRp9T-57" value="" style="sketch=0;aspect=fixed;pointerEvents=1;shadow=0;dashed=0;html=1;strokeColor=none;labelPosition=center;verticalLabelPosition=bottom;verticalAlign=top;align=center;fillColor=#00188D;shape=mxgraph.azure.laptop" parent="1" vertex="1">
          <mxGeometry x="1050" y="950" width="50" height="30" as="geometry" />
        </mxCell>
        <mxCell id="D216uD_KerBpteAYRp9T-58" value="" style="sketch=0;aspect=fixed;pointerEvents=1;shadow=0;dashed=0;html=1;strokeColor=none;labelPosition=center;verticalLabelPosition=bottom;verticalAlign=top;align=center;fillColor=#00188D;shape=mxgraph.azure.laptop" parent="1" vertex="1">
          <mxGeometry x="1142.5" y="1010" width="50" height="30" as="geometry" />
        </mxCell>
        <mxCell id="D216uD_KerBpteAYRp9T-59" value="" style="sketch=0;aspect=fixed;pointerEvents=1;shadow=0;dashed=0;html=1;strokeColor=none;labelPosition=center;verticalLabelPosition=bottom;verticalAlign=top;align=center;fillColor=#00188D;shape=mxgraph.azure.laptop" parent="1" vertex="1">
          <mxGeometry x="1050" y="1075" width="50" height="30" as="geometry" />
        </mxCell>
        <mxCell id="D216uD_KerBpteAYRp9T-60" value="" style="sketch=0;aspect=fixed;pointerEvents=1;shadow=0;dashed=0;html=1;strokeColor=none;labelPosition=center;verticalLabelPosition=bottom;verticalAlign=top;align=center;fillColor=#00188D;shape=mxgraph.azure.laptop" parent="1" vertex="1">
          <mxGeometry x="1050" y="1120" width="50" height="30" as="geometry" />
        </mxCell>
        <mxCell id="D216uD_KerBpteAYRp9T-61" value="" style="sketch=0;aspect=fixed;pointerEvents=1;shadow=0;dashed=0;html=1;strokeColor=none;labelPosition=center;verticalLabelPosition=bottom;verticalAlign=top;align=center;fillColor=#00188D;shape=mxgraph.azure.laptop" parent="1" vertex="1">
          <mxGeometry x="1350" y="840" width="50" height="30" as="geometry" />
        </mxCell>
        <mxCell id="D216uD_KerBpteAYRp9T-63" value="" style="sketch=0;aspect=fixed;pointerEvents=1;shadow=0;dashed=0;html=1;strokeColor=none;labelPosition=center;verticalLabelPosition=bottom;verticalAlign=top;align=center;fillColor=#00188D;shape=mxgraph.azure.laptop" parent="1" vertex="1">
          <mxGeometry x="1050" y="1206" width="50" height="30" as="geometry" />
        </mxCell>
        <mxCell id="D216uD_KerBpteAYRp9T-64" value="" style="sketch=0;aspect=fixed;pointerEvents=1;shadow=0;dashed=0;html=1;strokeColor=none;labelPosition=center;verticalLabelPosition=bottom;verticalAlign=top;align=center;fillColor=#00188D;shape=mxgraph.azure.laptop" parent="1" vertex="1">
          <mxGeometry x="1050" y="1160" width="50" height="30" as="geometry" />
        </mxCell>
        <mxCell id="D216uD_KerBpteAYRp9T-66" value="" style="sketch=0;aspect=fixed;pointerEvents=1;shadow=0;dashed=0;html=1;strokeColor=none;labelPosition=center;verticalLabelPosition=bottom;verticalAlign=top;align=center;fillColor=#00188D;shape=mxgraph.azure.laptop" parent="1" vertex="1">
          <mxGeometry x="1300" y="1200" width="50" height="30" as="geometry" />
        </mxCell>
        <mxCell id="D216uD_KerBpteAYRp9T-67" value="" style="sketch=0;aspect=fixed;pointerEvents=1;shadow=0;dashed=0;html=1;strokeColor=none;labelPosition=center;verticalLabelPosition=bottom;verticalAlign=top;align=center;fillColor=#00188D;shape=mxgraph.azure.laptop" parent="1" vertex="1">
          <mxGeometry x="1300" y="1140" width="50" height="30" as="geometry" />
        </mxCell>
        <mxCell id="D216uD_KerBpteAYRp9T-68" value="" style="sketch=0;aspect=fixed;pointerEvents=1;shadow=0;dashed=0;html=1;strokeColor=none;labelPosition=center;verticalLabelPosition=bottom;verticalAlign=top;align=center;fillColor=#00188D;shape=mxgraph.azure.laptop" parent="1" vertex="1">
          <mxGeometry x="1300" y="1070" width="50" height="30" as="geometry" />
        </mxCell>
        <mxCell id="D216uD_KerBpteAYRp9T-69" value="" style="sketch=0;aspect=fixed;pointerEvents=1;shadow=0;dashed=0;html=1;strokeColor=none;labelPosition=center;verticalLabelPosition=bottom;verticalAlign=top;align=center;fillColor=#00188D;shape=mxgraph.azure.laptop" parent="1" vertex="1">
          <mxGeometry x="1350" y="910" width="50" height="30" as="geometry" />
        </mxCell>
        <mxCell id="D216uD_KerBpteAYRp9T-70" value="" style="sketch=0;aspect=fixed;pointerEvents=1;shadow=0;dashed=0;html=1;strokeColor=none;labelPosition=center;verticalLabelPosition=bottom;verticalAlign=top;align=center;fillColor=#00188D;shape=mxgraph.azure.laptop" parent="1" vertex="1">
          <mxGeometry x="1250" y="910" width="50" height="30" as="geometry" />
        </mxCell>
        <mxCell id="D216uD_KerBpteAYRp9T-71" value="" style="sketch=0;aspect=fixed;pointerEvents=1;shadow=0;dashed=0;html=1;strokeColor=none;labelPosition=center;verticalLabelPosition=bottom;verticalAlign=top;align=center;fillColor=#00188D;shape=mxgraph.azure.laptop" parent="1" vertex="1">
          <mxGeometry x="1250" y="840" width="50" height="30" as="geometry" />
        </mxCell>
        <mxCell id="D216uD_KerBpteAYRp9T-74" value="&lt;span style=&quot;font-size: 14px;&quot;&gt;&lt;b&gt;Administration Building&amp;nbsp;&lt;/b&gt;&lt;/span&gt;" style="rounded=0;whiteSpace=wrap;html=1;rotation=-90;" parent="1" vertex="1">
          <mxGeometry x="1360" y="1075" width="205" height="65" as="geometry" />
        </mxCell>
        <mxCell id="D216uD_KerBpteAYRp9T-75" value="" style="rounded=0;whiteSpace=wrap;html=1;" parent="1" vertex="1">
          <mxGeometry x="1050" y="1460" width="160" height="360" as="geometry" />
        </mxCell>
        <mxCell id="D216uD_KerBpteAYRp9T-76" value="" style="sketch=0;aspect=fixed;pointerEvents=1;shadow=0;dashed=0;html=1;strokeColor=none;labelPosition=center;verticalLabelPosition=bottom;verticalAlign=top;align=center;fillColor=#00188D;shape=mxgraph.azure.laptop" parent="1" vertex="1">
          <mxGeometry x="1130" y="1490" width="50" height="30" as="geometry" />
        </mxCell>
        <mxCell id="D216uD_KerBpteAYRp9T-77" value="" style="sketch=0;aspect=fixed;pointerEvents=1;shadow=0;dashed=0;html=1;strokeColor=none;labelPosition=center;verticalLabelPosition=bottom;verticalAlign=top;align=center;fillColor=#00188D;shape=mxgraph.azure.laptop" parent="1" vertex="1">
          <mxGeometry x="1130" y="1610" width="50" height="30" as="geometry" />
        </mxCell>
        <mxCell id="D216uD_KerBpteAYRp9T-78" value="" style="sketch=0;aspect=fixed;pointerEvents=1;shadow=0;dashed=0;html=1;strokeColor=none;labelPosition=center;verticalLabelPosition=bottom;verticalAlign=top;align=center;fillColor=#00188D;shape=mxgraph.azure.laptop" parent="1" vertex="1">
          <mxGeometry x="1130" y="1550" width="50" height="30" as="geometry" />
        </mxCell>
        <mxCell id="D216uD_KerBpteAYRp9T-79" value="" style="sketch=0;aspect=fixed;pointerEvents=1;shadow=0;dashed=0;html=1;strokeColor=none;labelPosition=center;verticalLabelPosition=bottom;verticalAlign=top;align=center;fillColor=#00188D;shape=mxgraph.azure.laptop" parent="1" vertex="1">
          <mxGeometry x="1130" y="1680" width="50" height="30" as="geometry" />
        </mxCell>
        <mxCell id="D216uD_KerBpteAYRp9T-80" value="" style="sketch=0;aspect=fixed;pointerEvents=1;shadow=0;dashed=0;html=1;strokeColor=none;labelPosition=center;verticalLabelPosition=bottom;verticalAlign=top;align=center;fillColor=#00188D;shape=mxgraph.azure.laptop" parent="1" vertex="1">
          <mxGeometry x="1130" y="1750" width="50" height="30" as="geometry" />
        </mxCell>
        <mxCell id="D216uD_KerBpteAYRp9T-81" value="&lt;span style=&quot;font-size: 14px;&quot;&gt;&lt;b&gt;South Zone 2 Cubicles with 5 nodes&lt;/b&gt;&lt;/span&gt;" style="rounded=0;whiteSpace=wrap;html=1;rotation=0;" parent="1" vertex="1">
          <mxGeometry x="975" y="1840" width="370" height="40" as="geometry" />
        </mxCell>
        <mxCell id="D216uD_KerBpteAYRp9T-82" value="&lt;b style=&quot;&quot;&gt;&lt;font style=&quot;font-size: 18px;&quot;&gt;Central Zone&lt;/font&gt;&lt;/b&gt;" style="rounded=0;whiteSpace=wrap;html=1;rotation=-90;" parent="1" vertex="1">
          <mxGeometry x="415" y="900" width="660" height="60" as="geometry" />
        </mxCell>
        <mxCell id="D216uD_KerBpteAYRp9T-83" value="" style="sketch=0;aspect=fixed;pointerEvents=1;shadow=0;dashed=0;html=1;strokeColor=none;labelPosition=center;verticalLabelPosition=bottom;verticalAlign=top;align=center;fillColor=#00188D;shape=mxgraph.mscae.enterprise.device" parent="1" vertex="1">
          <mxGeometry x="1050" y="1627" width="50" height="26" as="geometry" />
        </mxCell>
        <mxCell id="D216uD_KerBpteAYRp9T-84" value="" style="rounded=0;whiteSpace=wrap;html=1;" parent="1" vertex="1">
          <mxGeometry x="-40" y="1410" width="670" height="350" as="geometry" />
        </mxCell>
        <mxCell id="D216uD_KerBpteAYRp9T-85" value="&lt;font style=&quot;font-size: 18px;&quot;&gt;&lt;b&gt;South Zone 1 - Offices with 7 nodes&amp;nbsp;&lt;/b&gt;&lt;/font&gt;" style="rounded=0;whiteSpace=wrap;html=1;" parent="1" vertex="1">
          <mxGeometry x="-10" y="1430" width="580" height="40" as="geometry" />
        </mxCell>
        <mxCell id="D216uD_KerBpteAYRp9T-86" value="" style="sketch=0;aspect=fixed;pointerEvents=1;shadow=0;dashed=0;html=1;strokeColor=none;labelPosition=center;verticalLabelPosition=bottom;verticalAlign=top;align=center;fillColor=#00188D;shape=mxgraph.azure.laptop" parent="1" vertex="1">
          <mxGeometry x="30" y="1480" width="50" height="30" as="geometry" />
        </mxCell>
        <mxCell id="D216uD_KerBpteAYRp9T-87" value="" style="sketch=0;aspect=fixed;pointerEvents=1;shadow=0;dashed=0;html=1;strokeColor=none;labelPosition=center;verticalLabelPosition=bottom;verticalAlign=top;align=center;fillColor=#00188D;shape=mxgraph.azure.laptop" parent="1" vertex="1">
          <mxGeometry x="-20" y="1720" width="50" height="30" as="geometry" />
        </mxCell>
        <mxCell id="D216uD_KerBpteAYRp9T-88" value="" style="sketch=0;aspect=fixed;pointerEvents=1;shadow=0;dashed=0;html=1;strokeColor=none;labelPosition=center;verticalLabelPosition=bottom;verticalAlign=top;align=center;fillColor=#00188D;shape=mxgraph.azure.laptop" parent="1" vertex="1">
          <mxGeometry x="260" y="1550" width="50" height="30" as="geometry" />
        </mxCell>
        <mxCell id="D216uD_KerBpteAYRp9T-89" value="" style="sketch=0;aspect=fixed;pointerEvents=1;shadow=0;dashed=0;html=1;strokeColor=none;labelPosition=center;verticalLabelPosition=bottom;verticalAlign=top;align=center;fillColor=#00188D;shape=mxgraph.azure.laptop" parent="1" vertex="1">
          <mxGeometry x="470" y="1710" width="50" height="30" as="geometry" />
        </mxCell>
        <mxCell id="D216uD_KerBpteAYRp9T-90" value="" style="sketch=0;aspect=fixed;pointerEvents=1;shadow=0;dashed=0;html=1;strokeColor=none;labelPosition=center;verticalLabelPosition=bottom;verticalAlign=top;align=center;fillColor=#00188D;shape=mxgraph.azure.laptop" parent="1" vertex="1">
          <mxGeometry x="570" y="1710" width="50" height="30" as="geometry" />
        </mxCell>
        <mxCell id="D216uD_KerBpteAYRp9T-91" value="" style="sketch=0;aspect=fixed;pointerEvents=1;shadow=0;dashed=0;html=1;strokeColor=none;labelPosition=center;verticalLabelPosition=bottom;verticalAlign=top;align=center;fillColor=#00188D;shape=mxgraph.azure.laptop" parent="1" vertex="1">
          <mxGeometry x="450" y="1480" width="50" height="30" as="geometry" />
        </mxCell>
        <mxCell id="D216uD_KerBpteAYRp9T-97" value="" style="sketch=0;aspect=fixed;pointerEvents=1;shadow=0;dashed=0;html=1;strokeColor=none;labelPosition=center;verticalLabelPosition=bottom;verticalAlign=top;align=center;fillColor=#00188D;shape=mxgraph.azure.laptop" parent="1" vertex="1">
          <mxGeometry x="100" y="1720" width="50" height="30" as="geometry" />
        </mxCell>
        <mxCell id="D216uD_KerBpteAYRp9T-98" value="" style="sketch=0;aspect=fixed;pointerEvents=1;shadow=0;dashed=0;html=1;strokeColor=none;labelPosition=center;verticalLabelPosition=bottom;verticalAlign=top;align=center;fillColor=#00188D;shape=mxgraph.mscae.enterprise.device" parent="1" vertex="1">
          <mxGeometry x="255" y="1627" width="50" height="26" as="geometry" />
        </mxCell>
        <mxCell id="D216uD_KerBpteAYRp9T-99" value="&lt;font style=&quot;font-size: 18px;&quot;&gt;&lt;b&gt;Internet&lt;/b&gt;&lt;/font&gt;&amp;nbsp;" style="ellipse;shape=cloud;whiteSpace=wrap;html=1;" parent="1" vertex="1">
          <mxGeometry x="-5" y="1005" width="120" height="80" as="geometry" />
        </mxCell>
        <mxCell id="D216uD_KerBpteAYRp9T-100" value="" style="endArrow=none;html=1;rounded=0;entryX=0;entryY=0.5;entryDx=0;entryDy=0;entryPerimeter=0;exitX=0.875;exitY=0.5;exitDx=0;exitDy=0;exitPerimeter=0;" parent="1" source="D216uD_KerBpteAYRp9T-99" target="D216uD_KerBpteAYRp9T-1" edge="1">
          <mxGeometry width="50" height="50" relative="1" as="geometry">
            <mxPoint x="-80" y="1050" as="sourcePoint" />
            <mxPoint x="-30" y="1000" as="targetPoint" />
          </mxGeometry>
        </mxCell>
        <mxCell id="D216uD_KerBpteAYRp9T-104" value="" style="endArrow=none;html=1;rounded=0;entryX=0.03;entryY=0.5;entryDx=0;entryDy=0;entryPerimeter=0;exitX=0.97;exitY=0.5;exitDx=0;exitDy=0;exitPerimeter=0;" parent="1" source="D216uD_KerBpteAYRp9T-51" target="D216uD_KerBpteAYRp9T-53" edge="1">
          <mxGeometry width="50" height="50" relative="1" as="geometry">
            <mxPoint x="760" y="940" as="sourcePoint" />
            <mxPoint x="810" y="890" as="targetPoint" />
            <Array as="points" />
          </mxGeometry>
        </mxCell>
        <mxCell id="D216uD_KerBpteAYRp9T-105" value="" style="endArrow=none;html=1;rounded=0;entryX=0.03;entryY=0.5;entryDx=0;entryDy=0;entryPerimeter=0;exitX=0.97;exitY=0.5;exitDx=0;exitDy=0;exitPerimeter=0;" parent="1" source="D216uD_KerBpteAYRp9T-53" target="D216uD_KerBpteAYRp9T-52" edge="1">
          <mxGeometry width="50" height="50" relative="1" as="geometry">
            <mxPoint x="959" y="1333" as="sourcePoint" />
            <mxPoint x="1120" y="1333" as="targetPoint" />
            <Array as="points" />
          </mxGeometry>
        </mxCell>
        <mxCell id="D216uD_KerBpteAYRp9T-108" value="" style="endArrow=none;html=1;rounded=0;entryX=0.5;entryY=1;entryDx=0;entryDy=0;entryPerimeter=0;" parent="1" source="D216uD_KerBpteAYRp9T-188" target="D216uD_KerBpteAYRp9T-53" edge="1">
          <mxGeometry width="50" height="50" relative="1" as="geometry">
            <mxPoint x="1134" y="1410" as="sourcePoint" />
            <mxPoint x="1420" y="1500" as="targetPoint" />
          </mxGeometry>
        </mxCell>
        <mxCell id="D216uD_KerBpteAYRp9T-111" value="" style="endArrow=none;html=1;rounded=0;entryX=0.5;entryY=1;entryDx=0;entryDy=0;entryPerimeter=0;" parent="1" source="D216uD_KerBpteAYRp9T-185" target="D216uD_KerBpteAYRp9T-51" edge="1">
          <mxGeometry width="50" height="50" relative="1" as="geometry">
            <mxPoint x="925" y="1410" as="sourcePoint" />
            <mxPoint x="940" y="1510" as="targetPoint" />
          </mxGeometry>
        </mxCell>
        <mxCell id="D216uD_KerBpteAYRp9T-112" value="" style="endArrow=classic;html=1;rounded=0;exitX=0.5;exitY=1;exitDx=0;exitDy=0;exitPerimeter=0;entryX=0.25;entryY=0;entryDx=0;entryDy=0;entryPerimeter=0;" parent="1" source="D216uD_KerBpteAYRp9T-20" target="soYMh1Tp0emqZ4fhd2WR-1" edge="1">
          <mxGeometry width="50" height="50" relative="1" as="geometry">
            <mxPoint x="840" y="970" as="sourcePoint" />
            <mxPoint x="586.800048828125" y="660" as="targetPoint" />
            <Array as="points">
              <mxPoint x="495" y="520" />
              <mxPoint x="500" y="850" />
              <mxPoint x="540" y="850" />
            </Array>
          </mxGeometry>
        </mxCell>
        <mxCell id="D216uD_KerBpteAYRp9T-116" value="" style="endArrow=none;html=1;rounded=0;entryX=0.02;entryY=0.98;entryDx=0;entryDy=0;entryPerimeter=0;exitX=0.97;exitY=0.5;exitDx=0;exitDy=0;exitPerimeter=0;" parent="1" source="D216uD_KerBpteAYRp9T-98" target="D216uD_KerBpteAYRp9T-91" edge="1">
          <mxGeometry width="50" height="50" relative="1" as="geometry">
            <mxPoint x="290" y="1630" as="sourcePoint" />
            <mxPoint x="360" y="1520" as="targetPoint" />
          </mxGeometry>
        </mxCell>
        <mxCell id="D216uD_KerBpteAYRp9T-117" value="" style="endArrow=none;html=1;rounded=0;entryX=0.5;entryY=1;entryDx=0;entryDy=0;entryPerimeter=0;exitX=0.03;exitY=0.5;exitDx=0;exitDy=0;exitPerimeter=0;" parent="1" source="D216uD_KerBpteAYRp9T-98" target="D216uD_KerBpteAYRp9T-86" edge="1">
          <mxGeometry width="50" height="50" relative="1" as="geometry">
            <mxPoint x="540" y="1550" as="sourcePoint" />
            <mxPoint x="590" y="1500" as="targetPoint" />
          </mxGeometry>
        </mxCell>
        <mxCell id="D216uD_KerBpteAYRp9T-118" value="" style="endArrow=none;html=1;rounded=0;entryX=0.5;entryY=1;entryDx=0;entryDy=0;entryPerimeter=0;exitX=0.5;exitY=0;exitDx=0;exitDy=0;exitPerimeter=0;" parent="1" source="D216uD_KerBpteAYRp9T-98" target="D216uD_KerBpteAYRp9T-88" edge="1">
          <mxGeometry width="50" height="50" relative="1" as="geometry">
            <mxPoint x="285" y="1630" as="sourcePoint" />
            <mxPoint x="590" y="1500" as="targetPoint" />
          </mxGeometry>
        </mxCell>
        <mxCell id="D216uD_KerBpteAYRp9T-119" value="" style="endArrow=none;html=1;rounded=0;entryX=0.92;entryY=0.5;entryDx=0;entryDy=0;entryPerimeter=0;exitX=0.03;exitY=0.5;exitDx=0;exitDy=0;exitPerimeter=0;" parent="1" source="D216uD_KerBpteAYRp9T-98" target="D216uD_KerBpteAYRp9T-97" edge="1">
          <mxGeometry width="50" height="50" relative="1" as="geometry">
            <mxPoint x="250" y="1640" as="sourcePoint" />
            <mxPoint x="590" y="1500" as="targetPoint" />
          </mxGeometry>
        </mxCell>
        <mxCell id="D216uD_KerBpteAYRp9T-120" value="" style="endArrow=none;html=1;rounded=0;entryX=0.03;entryY=0.5;entryDx=0;entryDy=0;entryPerimeter=0;" parent="1" target="D216uD_KerBpteAYRp9T-98" edge="1">
          <mxGeometry width="50" height="50" relative="1" as="geometry">
            <mxPoint x="20" y="1720" as="sourcePoint" />
            <mxPoint x="70" y="1670" as="targetPoint" />
          </mxGeometry>
        </mxCell>
        <mxCell id="D216uD_KerBpteAYRp9T-121" value="" style="endArrow=none;html=1;rounded=0;exitX=0.5;exitY=0;exitDx=0;exitDy=0;exitPerimeter=0;entryX=0.97;entryY=0.5;entryDx=0;entryDy=0;entryPerimeter=0;" parent="1" source="D216uD_KerBpteAYRp9T-89" target="D216uD_KerBpteAYRp9T-98" edge="1">
          <mxGeometry width="50" height="50" relative="1" as="geometry">
            <mxPoint x="540" y="1550" as="sourcePoint" />
            <mxPoint x="590" y="1500" as="targetPoint" />
          </mxGeometry>
        </mxCell>
        <mxCell id="D216uD_KerBpteAYRp9T-122" value="" style="endArrow=none;html=1;rounded=0;exitX=0.5;exitY=0;exitDx=0;exitDy=0;exitPerimeter=0;" parent="1" source="D216uD_KerBpteAYRp9T-90" edge="1">
          <mxGeometry width="50" height="50" relative="1" as="geometry">
            <mxPoint x="540" y="1550" as="sourcePoint" />
            <mxPoint x="310" y="1640" as="targetPoint" />
          </mxGeometry>
        </mxCell>
        <mxCell id="D216uD_KerBpteAYRp9T-123" value="" style="endArrow=none;html=1;rounded=0;" parent="1" edge="1">
          <mxGeometry width="50" height="50" relative="1" as="geometry">
            <mxPoint x="1090" y="1630" as="sourcePoint" />
            <mxPoint x="1140" y="1580" as="targetPoint" />
          </mxGeometry>
        </mxCell>
        <mxCell id="D216uD_KerBpteAYRp9T-124" value="" style="endArrow=none;html=1;rounded=0;exitX=0.82;exitY=0;exitDx=0;exitDy=0;exitPerimeter=0;" parent="1" source="D216uD_KerBpteAYRp9T-83" edge="1">
          <mxGeometry width="50" height="50" relative="1" as="geometry">
            <mxPoint x="1080" y="1570" as="sourcePoint" />
            <mxPoint x="1130" y="1520" as="targetPoint" />
          </mxGeometry>
        </mxCell>
        <mxCell id="D216uD_KerBpteAYRp9T-125" value="" style="endArrow=none;html=1;rounded=0;" parent="1" edge="1">
          <mxGeometry width="50" height="50" relative="1" as="geometry">
            <mxPoint x="1090" y="1630" as="sourcePoint" />
            <mxPoint x="1140" y="1630" as="targetPoint" />
          </mxGeometry>
        </mxCell>
        <mxCell id="D216uD_KerBpteAYRp9T-127" value="" style="endArrow=none;html=1;rounded=0;entryX=0.08;entryY=0.5;entryDx=0;entryDy=0;entryPerimeter=0;exitX=0.97;exitY=0.5;exitDx=0;exitDy=0;exitPerimeter=0;" parent="1" source="D216uD_KerBpteAYRp9T-83" target="D216uD_KerBpteAYRp9T-79" edge="1">
          <mxGeometry width="50" height="50" relative="1" as="geometry">
            <mxPoint x="1110" y="1630" as="sourcePoint" />
            <mxPoint x="1580" y="1500" as="targetPoint" />
          </mxGeometry>
        </mxCell>
        <mxCell id="D216uD_KerBpteAYRp9T-128" value="" style="endArrow=none;html=1;rounded=0;" parent="1" edge="1">
          <mxGeometry width="50" height="50" relative="1" as="geometry">
            <mxPoint x="1100" y="1640" as="sourcePoint" />
            <mxPoint x="1130" y="1760" as="targetPoint" />
          </mxGeometry>
        </mxCell>
        <mxCell id="D216uD_KerBpteAYRp9T-129" value="" style="endArrow=none;html=1;rounded=0;exitX=0.5;exitY=0;exitDx=0;exitDy=0;exitPerimeter=0;" parent="1" source="D216uD_KerBpteAYRp9T-52" edge="1">
          <mxGeometry width="50" height="50" relative="1" as="geometry">
            <mxPoint x="1330" y="990" as="sourcePoint" />
            <mxPoint x="1380" y="940" as="targetPoint" />
          </mxGeometry>
        </mxCell>
        <mxCell id="D216uD_KerBpteAYRp9T-130" value="" style="endArrow=none;html=1;rounded=0;exitX=0.5;exitY=0;exitDx=0;exitDy=0;exitPerimeter=0;" parent="1" source="D216uD_KerBpteAYRp9T-52" edge="1">
          <mxGeometry width="50" height="50" relative="1" as="geometry">
            <mxPoint x="1270" y="1280" as="sourcePoint" />
            <mxPoint x="1320" y="1230" as="targetPoint" />
          </mxGeometry>
        </mxCell>
        <mxCell id="D216uD_KerBpteAYRp9T-131" value="" style="endArrow=none;html=1;rounded=0;entryX=0.5;entryY=1;entryDx=0;entryDy=0;entryPerimeter=0;exitX=0.5;exitY=0;exitDx=0;exitDy=0;exitPerimeter=0;" parent="1" source="D216uD_KerBpteAYRp9T-52" target="D216uD_KerBpteAYRp9T-61" edge="1">
          <mxGeometry width="50" height="50" relative="1" as="geometry">
            <mxPoint x="1340" y="920" as="sourcePoint" />
            <mxPoint x="1390" y="870" as="targetPoint" />
          </mxGeometry>
        </mxCell>
        <mxCell id="D216uD_KerBpteAYRp9T-132" value="" style="endArrow=none;html=1;rounded=0;entryX=0.5;entryY=1;entryDx=0;entryDy=0;entryPerimeter=0;exitX=0.5;exitY=0;exitDx=0;exitDy=0;exitPerimeter=0;" parent="1" source="D216uD_KerBpteAYRp9T-52" target="D216uD_KerBpteAYRp9T-70" edge="1">
          <mxGeometry width="50" height="50" relative="1" as="geometry">
            <mxPoint x="1530" y="1130" as="sourcePoint" />
            <mxPoint x="1580" y="1080" as="targetPoint" />
          </mxGeometry>
        </mxCell>
        <mxCell id="D216uD_KerBpteAYRp9T-133" value="" style="endArrow=none;html=1;rounded=0;entryX=0.5;entryY=1;entryDx=0;entryDy=0;entryPerimeter=0;exitX=0.5;exitY=0;exitDx=0;exitDy=0;exitPerimeter=0;" parent="1" source="D216uD_KerBpteAYRp9T-52" target="D216uD_KerBpteAYRp9T-68" edge="1">
          <mxGeometry width="50" height="50" relative="1" as="geometry">
            <mxPoint x="1530" y="1130" as="sourcePoint" />
            <mxPoint x="1580" y="1080" as="targetPoint" />
          </mxGeometry>
        </mxCell>
        <mxCell id="D216uD_KerBpteAYRp9T-134" value="" style="endArrow=none;html=1;rounded=0;exitX=0.5;exitY=0;exitDx=0;exitDy=0;exitPerimeter=0;" parent="1" source="D216uD_KerBpteAYRp9T-52" edge="1">
          <mxGeometry width="50" height="50" relative="1" as="geometry">
            <mxPoint x="1530" y="1130" as="sourcePoint" />
            <mxPoint x="1320" y="1170" as="targetPoint" />
          </mxGeometry>
        </mxCell>
        <mxCell id="D216uD_KerBpteAYRp9T-135" value="" style="endArrow=none;html=1;rounded=0;" parent="1" edge="1">
          <mxGeometry width="50" height="50" relative="1" as="geometry">
            <mxPoint x="1350" y="1300" as="sourcePoint" />
            <mxPoint x="1280" y="870" as="targetPoint" />
          </mxGeometry>
        </mxCell>
        <mxCell id="D216uD_KerBpteAYRp9T-136" value="" style="endArrow=none;html=1;rounded=0;exitX=0.5;exitY=0;exitDx=0;exitDy=0;exitPerimeter=0;entryX=0.5;entryY=1;entryDx=0;entryDy=0;entryPerimeter=0;" parent="1" source="D216uD_KerBpteAYRp9T-53" target="D216uD_KerBpteAYRp9T-58" edge="1">
          <mxGeometry width="50" height="50" relative="1" as="geometry">
            <mxPoint x="1120" y="1100" as="sourcePoint" />
            <mxPoint x="1170" y="1050" as="targetPoint" />
          </mxGeometry>
        </mxCell>
        <mxCell id="D216uD_KerBpteAYRp9T-137" value="" style="endArrow=none;html=1;rounded=0;exitX=0.5;exitY=0;exitDx=0;exitDy=0;exitPerimeter=0;entryX=0.92;entryY=0.5;entryDx=0;entryDy=0;entryPerimeter=0;" parent="1" source="D216uD_KerBpteAYRp9T-53" target="D216uD_KerBpteAYRp9T-63" edge="1">
          <mxGeometry width="50" height="50" relative="1" as="geometry">
            <mxPoint x="1150" y="1270" as="sourcePoint" />
            <mxPoint x="1200" y="1220" as="targetPoint" />
          </mxGeometry>
        </mxCell>
        <mxCell id="D216uD_KerBpteAYRp9T-138" value="" style="endArrow=none;html=1;rounded=0;exitX=0.5;exitY=0;exitDx=0;exitDy=0;exitPerimeter=0;entryX=0.92;entryY=0.5;entryDx=0;entryDy=0;entryPerimeter=0;" parent="1" source="D216uD_KerBpteAYRp9T-53" target="D216uD_KerBpteAYRp9T-64" edge="1">
          <mxGeometry width="50" height="50" relative="1" as="geometry">
            <mxPoint x="1170" y="1210" as="sourcePoint" />
            <mxPoint x="1220" y="1160" as="targetPoint" />
          </mxGeometry>
        </mxCell>
        <mxCell id="D216uD_KerBpteAYRp9T-139" value="" style="endArrow=none;html=1;rounded=0;exitX=0.98;exitY=0.98;exitDx=0;exitDy=0;exitPerimeter=0;" parent="1" source="D216uD_KerBpteAYRp9T-56" edge="1">
          <mxGeometry width="50" height="50" relative="1" as="geometry">
            <mxPoint x="1080" y="940" as="sourcePoint" />
            <mxPoint x="1140" y="1310" as="targetPoint" />
          </mxGeometry>
        </mxCell>
        <mxCell id="D216uD_KerBpteAYRp9T-140" value="" style="endArrow=none;html=1;rounded=0;" parent="1" edge="1">
          <mxGeometry width="50" height="50" relative="1" as="geometry">
            <mxPoint x="1092.5" y="900" as="sourcePoint" />
            <mxPoint x="1140" y="1310" as="targetPoint" />
          </mxGeometry>
        </mxCell>
        <mxCell id="D216uD_KerBpteAYRp9T-141" value="" style="endArrow=none;html=1;rounded=0;entryX=0.5;entryY=0;entryDx=0;entryDy=0;entryPerimeter=0;" parent="1" target="D216uD_KerBpteAYRp9T-53" edge="1">
          <mxGeometry width="50" height="50" relative="1" as="geometry">
            <mxPoint x="1092.5" y="980" as="sourcePoint" />
            <mxPoint x="1142.5" y="930" as="targetPoint" />
          </mxGeometry>
        </mxCell>
        <mxCell id="D216uD_KerBpteAYRp9T-142" value="" style="endArrow=none;html=1;rounded=0;entryX=0.92;entryY=0.5;entryDx=0;entryDy=0;entryPerimeter=0;" parent="1" target="D216uD_KerBpteAYRp9T-60" edge="1">
          <mxGeometry width="50" height="50" relative="1" as="geometry">
            <mxPoint x="1135" y="1310" as="sourcePoint" />
            <mxPoint x="1185" y="1260" as="targetPoint" />
          </mxGeometry>
        </mxCell>
        <mxCell id="D216uD_KerBpteAYRp9T-143" value="" style="endArrow=none;html=1;rounded=0;entryX=0.92;entryY=0.5;entryDx=0;entryDy=0;entryPerimeter=0;" parent="1" target="D216uD_KerBpteAYRp9T-59" edge="1">
          <mxGeometry width="50" height="50" relative="1" as="geometry">
            <mxPoint x="1130" y="1310" as="sourcePoint" />
            <mxPoint x="1180" y="1260" as="targetPoint" />
          </mxGeometry>
        </mxCell>
        <mxCell id="D216uD_KerBpteAYRp9T-144" value="" style="endArrow=none;html=1;rounded=0;entryX=0.5;entryY=0;entryDx=0;entryDy=0;entryPerimeter=0;" parent="1" target="D216uD_KerBpteAYRp9T-53" edge="1">
          <mxGeometry width="50" height="50" relative="1" as="geometry">
            <mxPoint x="1100" y="860" as="sourcePoint" />
            <mxPoint x="1150" y="810" as="targetPoint" />
          </mxGeometry>
        </mxCell>
        <mxCell id="D216uD_KerBpteAYRp9T-145" value="" style="endArrow=none;html=1;rounded=0;entryX=0.5;entryY=1;entryDx=0;entryDy=0;entryPerimeter=0;" parent="1" target="D216uD_KerBpteAYRp9T-48" edge="1">
          <mxGeometry width="50" height="50" relative="1" as="geometry">
            <mxPoint x="920" y="1310" as="sourcePoint" />
            <mxPoint x="970" y="1260" as="targetPoint" />
          </mxGeometry>
        </mxCell>
        <mxCell id="D216uD_KerBpteAYRp9T-146" value="" style="endArrow=none;html=1;rounded=0;entryX=0.5;entryY=1;entryDx=0;entryDy=0;entryPerimeter=0;exitX=0.6;exitY=0.385;exitDx=0;exitDy=0;exitPerimeter=0;" parent="1" source="D216uD_KerBpteAYRp9T-51" target="D216uD_KerBpteAYRp9T-50" edge="1">
          <mxGeometry width="50" height="50" relative="1" as="geometry">
            <mxPoint x="920" y="1300" as="sourcePoint" />
            <mxPoint x="970" y="1250" as="targetPoint" />
          </mxGeometry>
        </mxCell>
        <mxCell id="D216uD_KerBpteAYRp9T-149" value="" style="endArrow=none;html=1;rounded=0;exitX=0.5;exitY=0;exitDx=0;exitDy=0;exitPerimeter=0;" parent="1" source="D216uD_KerBpteAYRp9T-51" edge="1">
          <mxGeometry width="50" height="50" relative="1" as="geometry">
            <mxPoint x="930" y="1300" as="sourcePoint" />
            <mxPoint x="980" y="950" as="targetPoint" />
          </mxGeometry>
        </mxCell>
        <mxCell id="D216uD_KerBpteAYRp9T-150" value="" style="endArrow=none;html=1;rounded=0;entryX=0.5;entryY=0;entryDx=0;entryDy=0;entryPerimeter=0;" parent="1" target="D216uD_KerBpteAYRp9T-51" edge="1">
          <mxGeometry width="50" height="50" relative="1" as="geometry">
            <mxPoint x="890" y="950" as="sourcePoint" />
            <mxPoint x="940" y="900" as="targetPoint" />
          </mxGeometry>
        </mxCell>
        <mxCell id="D216uD_KerBpteAYRp9T-151" value="" style="endArrow=none;html=1;rounded=0;" parent="1" edge="1">
          <mxGeometry width="50" height="50" relative="1" as="geometry">
            <mxPoint x="930" y="1310" as="sourcePoint" />
            <mxPoint x="970" y="870" as="targetPoint" />
          </mxGeometry>
        </mxCell>
        <mxCell id="D216uD_KerBpteAYRp9T-152" value="" style="endArrow=none;html=1;rounded=0;entryX=0.5;entryY=0;entryDx=0;entryDy=0;entryPerimeter=0;" parent="1" target="D216uD_KerBpteAYRp9T-51" edge="1">
          <mxGeometry width="50" height="50" relative="1" as="geometry">
            <mxPoint x="890" y="870" as="sourcePoint" />
            <mxPoint x="940" y="820" as="targetPoint" />
          </mxGeometry>
        </mxCell>
        <mxCell id="D216uD_KerBpteAYRp9T-153" value="" style="endArrow=none;html=1;rounded=0;entryX=0.03;entryY=0.5;entryDx=0;entryDy=0;entryPerimeter=0;" parent="1" target="D216uD_KerBpteAYRp9T-35" edge="1">
          <mxGeometry width="50" height="50" relative="1" as="geometry">
            <mxPoint x="1180" y="650" as="sourcePoint" />
            <mxPoint x="1230" y="600" as="targetPoint" />
          </mxGeometry>
        </mxCell>
        <mxCell id="D216uD_KerBpteAYRp9T-154" value="" style="endArrow=none;html=1;rounded=0;entryX=0.03;entryY=0.5;entryDx=0;entryDy=0;entryPerimeter=0;" parent="1" target="D216uD_KerBpteAYRp9T-35" edge="1">
          <mxGeometry width="50" height="50" relative="1" as="geometry">
            <mxPoint x="1180" y="710" as="sourcePoint" />
            <mxPoint x="1230" y="660" as="targetPoint" />
          </mxGeometry>
        </mxCell>
        <mxCell id="D216uD_KerBpteAYRp9T-155" value="" style="endArrow=none;html=1;rounded=0;entryX=0.03;entryY=0.5;entryDx=0;entryDy=0;entryPerimeter=0;" parent="1" target="D216uD_KerBpteAYRp9T-35" edge="1">
          <mxGeometry width="50" height="50" relative="1" as="geometry">
            <mxPoint x="1180" y="560" as="sourcePoint" />
            <mxPoint x="1230" y="510" as="targetPoint" />
          </mxGeometry>
        </mxCell>
        <mxCell id="D216uD_KerBpteAYRp9T-156" value="" style="endArrow=none;html=1;rounded=0;" parent="1" edge="1">
          <mxGeometry width="50" height="50" relative="1" as="geometry">
            <mxPoint x="1320" y="640" as="sourcePoint" />
            <mxPoint x="1090" y="570" as="targetPoint" />
          </mxGeometry>
        </mxCell>
        <mxCell id="D216uD_KerBpteAYRp9T-157" value="" style="endArrow=none;html=1;rounded=0;exitX=0.03;exitY=0.5;exitDx=0;exitDy=0;exitPerimeter=0;" parent="1" source="D216uD_KerBpteAYRp9T-35" edge="1">
          <mxGeometry width="50" height="50" relative="1" as="geometry">
            <mxPoint x="970" y="620" as="sourcePoint" />
            <mxPoint x="1020" y="570" as="targetPoint" />
          </mxGeometry>
        </mxCell>
        <mxCell id="D216uD_KerBpteAYRp9T-158" value="" style="endArrow=none;html=1;rounded=0;" parent="1" edge="1">
          <mxGeometry width="50" height="50" relative="1" as="geometry">
            <mxPoint x="1320" y="640" as="sourcePoint" />
            <mxPoint x="950" y="570" as="targetPoint" />
          </mxGeometry>
        </mxCell>
        <mxCell id="D216uD_KerBpteAYRp9T-159" value="" style="endArrow=none;html=1;rounded=0;" parent="1" edge="1">
          <mxGeometry width="50" height="50" relative="1" as="geometry">
            <mxPoint x="1330" y="640" as="sourcePoint" />
            <mxPoint x="880" y="570" as="targetPoint" />
          </mxGeometry>
        </mxCell>
        <mxCell id="D216uD_KerBpteAYRp9T-160" value="" style="endArrow=none;html=1;rounded=0;exitX=0.92;exitY=0.5;exitDx=0;exitDy=0;exitPerimeter=0;" parent="1" source="D216uD_KerBpteAYRp9T-30" edge="1">
          <mxGeometry width="50" height="50" relative="1" as="geometry">
            <mxPoint x="1090" y="560" as="sourcePoint" />
            <mxPoint x="1320" y="640" as="targetPoint" />
          </mxGeometry>
        </mxCell>
        <mxCell id="D216uD_KerBpteAYRp9T-161" value="" style="endArrow=none;html=1;rounded=0;" parent="1" edge="1">
          <mxGeometry width="50" height="50" relative="1" as="geometry">
            <mxPoint x="1040" y="730" as="sourcePoint" />
            <mxPoint x="1320" y="640" as="targetPoint" />
          </mxGeometry>
        </mxCell>
        <mxCell id="D216uD_KerBpteAYRp9T-162" value="" style="endArrow=none;html=1;rounded=0;entryX=0.03;entryY=0.5;entryDx=0;entryDy=0;entryPerimeter=0;" parent="1" target="D216uD_KerBpteAYRp9T-35" edge="1">
          <mxGeometry width="50" height="50" relative="1" as="geometry">
            <mxPoint x="890" y="650" as="sourcePoint" />
            <mxPoint x="940" y="600" as="targetPoint" />
          </mxGeometry>
        </mxCell>
        <mxCell id="D216uD_KerBpteAYRp9T-163" value="" style="endArrow=none;html=1;rounded=0;" parent="1" edge="1">
          <mxGeometry width="50" height="50" relative="1" as="geometry">
            <mxPoint x="900" y="720" as="sourcePoint" />
            <mxPoint x="1320" y="635" as="targetPoint" />
          </mxGeometry>
        </mxCell>
        <mxCell id="D216uD_KerBpteAYRp9T-164" value="" style="endArrow=none;html=1;rounded=0;entryX=0.08;entryY=0.5;entryDx=0;entryDy=0;entryPerimeter=0;" parent="1" target="D216uD_KerBpteAYRp9T-17" edge="1">
          <mxGeometry width="50" height="50" relative="1" as="geometry">
            <mxPoint x="520" y="380" as="sourcePoint" />
            <mxPoint x="570" y="330" as="targetPoint" />
          </mxGeometry>
        </mxCell>
        <mxCell id="D216uD_KerBpteAYRp9T-165" value="" style="endArrow=none;html=1;rounded=0;entryX=0.02;entryY=0.98;entryDx=0;entryDy=0;entryPerimeter=0;" parent="1" target="D216uD_KerBpteAYRp9T-12" edge="1">
          <mxGeometry width="50" height="50" relative="1" as="geometry">
            <mxPoint x="520" y="380" as="sourcePoint" />
            <mxPoint x="570" y="330" as="targetPoint" />
          </mxGeometry>
        </mxCell>
        <mxCell id="D216uD_KerBpteAYRp9T-166" value="" style="endArrow=none;html=1;rounded=0;" parent="1" edge="1">
          <mxGeometry width="50" height="50" relative="1" as="geometry">
            <mxPoint x="530" y="380" as="sourcePoint" />
            <mxPoint x="720" y="360" as="targetPoint" />
          </mxGeometry>
        </mxCell>
        <mxCell id="D216uD_KerBpteAYRp9T-168" value="" style="endArrow=none;html=1;rounded=0;exitX=0.97;exitY=0.5;exitDx=0;exitDy=0;exitPerimeter=0;" parent="1" source="D216uD_KerBpteAYRp9T-20" edge="1">
          <mxGeometry width="50" height="50" relative="1" as="geometry">
            <mxPoint x="770" y="410" as="sourcePoint" />
            <mxPoint x="820" y="360" as="targetPoint" />
          </mxGeometry>
        </mxCell>
        <mxCell id="D216uD_KerBpteAYRp9T-169" value="" style="endArrow=none;html=1;rounded=0;entryX=0.08;entryY=0.5;entryDx=0;entryDy=0;entryPerimeter=0;" parent="1" target="D216uD_KerBpteAYRp9T-18" edge="1">
          <mxGeometry width="50" height="50" relative="1" as="geometry">
            <mxPoint x="520" y="380" as="sourcePoint" />
            <mxPoint x="560" y="340" as="targetPoint" />
          </mxGeometry>
        </mxCell>
        <mxCell id="D216uD_KerBpteAYRp9T-170" value="" style="endArrow=none;html=1;rounded=0;exitX=0.5;exitY=0;exitDx=0;exitDy=0;exitPerimeter=0;entryX=0.5;entryY=1;entryDx=0;entryDy=0;entryPerimeter=0;" parent="1" source="D216uD_KerBpteAYRp9T-20" target="D216uD_KerBpteAYRp9T-9" edge="1">
          <mxGeometry width="50" height="50" relative="1" as="geometry">
            <mxPoint x="440" y="350" as="sourcePoint" />
            <mxPoint x="490" y="300" as="targetPoint" />
          </mxGeometry>
        </mxCell>
        <mxCell id="D216uD_KerBpteAYRp9T-172" value="" style="endArrow=none;html=1;rounded=0;exitX=0.5;exitY=0;exitDx=0;exitDy=0;exitPerimeter=0;" parent="1" source="D216uD_KerBpteAYRp9T-20" edge="1">
          <mxGeometry width="50" height="50" relative="1" as="geometry">
            <mxPoint x="450" y="250" as="sourcePoint" />
            <mxPoint x="500" y="200" as="targetPoint" />
          </mxGeometry>
        </mxCell>
        <mxCell id="D216uD_KerBpteAYRp9T-173" value="" style="endArrow=none;html=1;rounded=0;exitX=0.03;exitY=0.5;exitDx=0;exitDy=0;exitPerimeter=0;" parent="1" source="D216uD_KerBpteAYRp9T-20" edge="1">
          <mxGeometry width="50" height="50" relative="1" as="geometry">
            <mxPoint x="300" y="330" as="sourcePoint" />
            <mxPoint x="350" y="280" as="targetPoint" />
          </mxGeometry>
        </mxCell>
        <mxCell id="D216uD_KerBpteAYRp9T-174" value="" style="endArrow=none;html=1;rounded=0;exitX=0.03;exitY=0.5;exitDx=0;exitDy=0;exitPerimeter=0;" parent="1" source="D216uD_KerBpteAYRp9T-20" edge="1">
          <mxGeometry width="50" height="50" relative="1" as="geometry">
            <mxPoint x="300" y="410" as="sourcePoint" />
            <mxPoint x="350" y="360" as="targetPoint" />
          </mxGeometry>
        </mxCell>
        <mxCell id="D216uD_KerBpteAYRp9T-175" value="" style="endArrow=none;html=1;rounded=0;exitX=0.92;exitY=0.5;exitDx=0;exitDy=0;exitPerimeter=0;entryX=0.03;entryY=0.5;entryDx=0;entryDy=0;entryPerimeter=0;" parent="1" source="D216uD_KerBpteAYRp9T-7" target="D216uD_KerBpteAYRp9T-20" edge="1">
          <mxGeometry width="50" height="50" relative="1" as="geometry">
            <mxPoint x="420" y="420" as="sourcePoint" />
            <mxPoint x="470" y="370" as="targetPoint" />
          </mxGeometry>
        </mxCell>
        <mxCell id="D216uD_KerBpteAYRp9T-176" value="" style="endArrow=none;html=1;rounded=0;entryX=0.03;entryY=0.5;entryDx=0;entryDy=0;entryPerimeter=0;" parent="1" target="D216uD_KerBpteAYRp9T-20" edge="1">
          <mxGeometry width="50" height="50" relative="1" as="geometry">
            <mxPoint x="250" y="350" as="sourcePoint" />
            <mxPoint x="300" y="300" as="targetPoint" />
          </mxGeometry>
        </mxCell>
        <mxCell id="D216uD_KerBpteAYRp9T-177" value="" style="endArrow=none;html=1;rounded=0;entryX=0.03;entryY=0.5;entryDx=0;entryDy=0;entryPerimeter=0;" parent="1" target="D216uD_KerBpteAYRp9T-20" edge="1">
          <mxGeometry width="50" height="50" relative="1" as="geometry">
            <mxPoint x="290" y="430" as="sourcePoint" />
            <mxPoint x="340" y="380" as="targetPoint" />
          </mxGeometry>
        </mxCell>
        <mxCell id="D216uD_KerBpteAYRp9T-178" value="" style="endArrow=none;html=1;rounded=0;" parent="1" edge="1">
          <mxGeometry width="50" height="50" relative="1" as="geometry">
            <mxPoint x="210" y="420" as="sourcePoint" />
            <mxPoint x="470" y="380" as="targetPoint" />
          </mxGeometry>
        </mxCell>
        <mxCell id="D216uD_KerBpteAYRp9T-179" value="&lt;b&gt;&lt;font style=&quot;font-size: 18px;&quot;&gt;&lt;font style=&quot;&quot;&gt;Ground&lt;/font&gt;&lt;br&gt;&lt;font style=&quot;&quot;&gt;Floor&lt;/font&gt;&lt;/font&gt;&lt;/b&gt;" style="text;html=1;strokeColor=none;fillColor=none;align=center;verticalAlign=middle;whiteSpace=wrap;rounded=0;" parent="1" vertex="1">
          <mxGeometry x="907.5" y="1220" width="140" height="70" as="geometry" />
        </mxCell>
        <mxCell id="D216uD_KerBpteAYRp9T-180" value="&lt;b&gt;&lt;font style=&quot;font-size: 18px;&quot;&gt;First&lt;br&gt;&lt;font style=&quot;&quot;&gt;Floor&lt;/font&gt;&lt;/font&gt;&lt;/b&gt;" style="text;html=1;strokeColor=none;fillColor=none;align=center;verticalAlign=middle;whiteSpace=wrap;rounded=0;" parent="1" vertex="1">
          <mxGeometry x="1005" y="1005" width="140" height="70" as="geometry" />
        </mxCell>
        <mxCell id="D216uD_KerBpteAYRp9T-181" value="&lt;span style=&quot;font-size: 18px;&quot;&gt;&lt;b&gt;Second&lt;/b&gt;&lt;/span&gt;&lt;br&gt;&lt;font style=&quot;font-size: 18px;&quot;&gt;Floor&lt;/font&gt;" style="text;html=1;strokeColor=none;fillColor=none;align=center;verticalAlign=middle;whiteSpace=wrap;rounded=0;" parent="1" vertex="1">
          <mxGeometry x="1210" y="1030" width="140" height="70" as="geometry" />
        </mxCell>
        <mxCell id="D216uD_KerBpteAYRp9T-182" value="&lt;font style=&quot;font-size: 18px;&quot;&gt;&lt;b&gt;Switch&amp;nbsp;&lt;/b&gt;&lt;/font&gt;" style="text;html=1;strokeColor=none;fillColor=none;align=center;verticalAlign=middle;whiteSpace=wrap;rounded=0;" parent="1" vertex="1">
          <mxGeometry x="470" y="391" width="60" height="30" as="geometry" />
        </mxCell>
        <mxCell id="D216uD_KerBpteAYRp9T-183" value="&lt;font style=&quot;font-size: 18px;&quot;&gt;&lt;b&gt;Switch&amp;nbsp;&lt;/b&gt;&lt;/font&gt;" style="text;html=1;strokeColor=none;fillColor=none;align=center;verticalAlign=middle;whiteSpace=wrap;rounded=0;" parent="1" vertex="1">
          <mxGeometry x="1327.5" y="648" width="65" height="30" as="geometry" />
        </mxCell>
        <mxCell id="D216uD_KerBpteAYRp9T-185" value="&lt;font style=&quot;font-size: 18px;&quot;&gt;&lt;b&gt;Switch&amp;nbsp;&lt;/b&gt;&lt;/font&gt;" style="text;html=1;strokeColor=none;fillColor=none;align=center;verticalAlign=middle;whiteSpace=wrap;rounded=0;" parent="1" vertex="1">
          <mxGeometry x="900" y="1340" width="60" height="30" as="geometry" />
        </mxCell>
        <mxCell id="D216uD_KerBpteAYRp9T-187" value="&lt;font style=&quot;font-size: 18px;&quot;&gt;&lt;b&gt;Switch&amp;nbsp;&lt;/b&gt;&lt;/font&gt;" style="text;html=1;strokeColor=none;fillColor=none;align=center;verticalAlign=middle;whiteSpace=wrap;rounded=0;" parent="1" vertex="1">
          <mxGeometry x="1315" y="1340" width="60" height="30" as="geometry" />
        </mxCell>
        <mxCell id="D216uD_KerBpteAYRp9T-188" value="&lt;font style=&quot;font-size: 18px;&quot;&gt;&lt;b&gt;Switch&amp;nbsp;&lt;/b&gt;&lt;/font&gt;" style="text;html=1;strokeColor=none;fillColor=none;align=center;verticalAlign=middle;whiteSpace=wrap;rounded=0;" parent="1" vertex="1">
          <mxGeometry x="1103.75" y="1340" width="60" height="30" as="geometry" />
        </mxCell>
        <mxCell id="D216uD_KerBpteAYRp9T-192" value="&lt;font style=&quot;font-size: 18px;&quot;&gt;&lt;b&gt;Switch&amp;nbsp;&lt;/b&gt;&lt;/font&gt;" style="text;html=1;strokeColor=none;fillColor=none;align=center;verticalAlign=middle;whiteSpace=wrap;rounded=0;" parent="1" vertex="1">
          <mxGeometry x="1048.75" y="1650" width="60" height="30" as="geometry" />
        </mxCell>
        <mxCell id="D216uD_KerBpteAYRp9T-193" value="&lt;font style=&quot;font-size: 18px;&quot;&gt;&lt;b&gt;Switch&amp;nbsp;&lt;/b&gt;&lt;/font&gt;" style="text;html=1;strokeColor=none;fillColor=none;align=center;verticalAlign=middle;whiteSpace=wrap;rounded=0;" parent="1" vertex="1">
          <mxGeometry x="255" y="1660" width="60" height="30" as="geometry" />
        </mxCell>
        <mxCell id="9m112_vyamJDprNrur43-5" value="" style="endArrow=classic;html=1;rounded=0;entryX=0;entryY=0.5;entryDx=0;entryDy=0;entryPerimeter=0;" parent="1" source="D216uD_KerBpteAYRp9T-1" target="soYMh1Tp0emqZ4fhd2WR-1" edge="1">
          <mxGeometry width="50" height="50" relative="1" as="geometry">
            <mxPoint x="500" y="1170" as="sourcePoint" />
            <mxPoint x="520" y="1045" as="targetPoint" />
            <Array as="points" />
          </mxGeometry>
        </mxCell>
        <mxCell id="soYMh1Tp0emqZ4fhd2WR-1" value="" style="verticalLabelPosition=bottom;sketch=0;html=1;fillColor=#A153A0;strokeColor=#ffffff;verticalAlign=top;align=center;points=[[0,0.5,0],[0.125,0.25,0],[0.25,0,0],[0.5,0,0],[0.75,0,0],[0.875,0.25,0],[1,0.5,0],[0.875,0.75,0],[0.75,1,0],[0.5,1,0],[0.125,0.75,0]];pointerEvents=1;shape=mxgraph.cisco_safe.compositeIcon;bgIcon=mxgraph.cisco_safe.design.blank_device;resIcon=mxgraph.cisco_safe.design.l3_switch;" parent="1" vertex="1">
          <mxGeometry x="510" y="1000" width="130" height="100" as="geometry" />
        </mxCell>
        <mxCell id="soYMh1Tp0emqZ4fhd2WR-3" value="&lt;font style=&quot;font-size: 18px;&quot;&gt;Central Core Switch&lt;/font&gt;" style="text;html=1;strokeColor=none;fillColor=none;align=center;verticalAlign=middle;whiteSpace=wrap;rounded=0;" parent="1" vertex="1">
          <mxGeometry x="560" y="1120" width="60" height="30" as="geometry" />
        </mxCell>
        <mxCell id="soYMh1Tp0emqZ4fhd2WR-4" value="" style="sketch=0;pointerEvents=1;shadow=0;dashed=0;html=1;strokeColor=none;fillColor=#434445;aspect=fixed;labelPosition=center;verticalLabelPosition=bottom;verticalAlign=top;align=center;outlineConnect=0;shape=mxgraph.vvd.ethernet_port;" parent="1" vertex="1">
          <mxGeometry x="1330" y="690" width="50" height="50" as="geometry" />
        </mxCell>
        <mxCell id="soYMh1Tp0emqZ4fhd2WR-8" value="&lt;font style=&quot;font-size: 18px;&quot;&gt;Ethernet&lt;/font&gt;" style="text;html=1;strokeColor=none;fillColor=none;align=center;verticalAlign=middle;whiteSpace=wrap;rounded=0;" parent="1" vertex="1">
          <mxGeometry x="1330" y="740" width="60" height="30" as="geometry" />
        </mxCell>
        <mxCell id="soYMh1Tp0emqZ4fhd2WR-11" value="" style="endArrow=none;html=1;rounded=0;entryX=0.5;entryY=1;entryDx=0;entryDy=0;entryPerimeter=0;" parent="1" source="soYMh1Tp0emqZ4fhd2WR-4" target="D216uD_KerBpteAYRp9T-35" edge="1">
          <mxGeometry width="50" height="50" relative="1" as="geometry">
            <mxPoint x="1310" y="720" as="sourcePoint" />
            <mxPoint x="1360" y="670" as="targetPoint" />
          </mxGeometry>
        </mxCell>
        <mxCell id="soYMh1Tp0emqZ4fhd2WR-13" value="" style="endArrow=classic;html=1;rounded=0;exitX=0.5;exitY=0;exitDx=0;exitDy=0;entryX=0.695;entryY=-0.04;entryDx=0;entryDy=0;entryPerimeter=0;" parent="1" source="soYMh1Tp0emqZ4fhd2WR-8" target="soYMh1Tp0emqZ4fhd2WR-1" edge="1">
          <mxGeometry width="50" height="50" relative="1" as="geometry">
            <mxPoint x="1350" y="790" as="sourcePoint" />
            <mxPoint x="610" y="980" as="targetPoint" />
            <Array as="points">
              <mxPoint x="1360" y="780" />
              <mxPoint x="790" y="780" />
              <mxPoint x="790" y="560" />
              <mxPoint x="600" y="560" />
            </Array>
          </mxGeometry>
        </mxCell>
        <mxCell id="soYMh1Tp0emqZ4fhd2WR-15" value="" style="endArrow=classic;html=1;rounded=0;exitX=0.03;exitY=0.5;exitDx=0;exitDy=0;exitPerimeter=0;entryX=0.659;entryY=1.048;entryDx=0;entryDy=0;entryPerimeter=0;" parent="1" source="D216uD_KerBpteAYRp9T-83" target="soYMh1Tp0emqZ4fhd2WR-1" edge="1">
          <mxGeometry width="50" height="50" relative="1" as="geometry">
            <mxPoint x="830" y="1650" as="sourcePoint" />
            <mxPoint x="600" y="1170" as="targetPoint" />
            <Array as="points">
              <mxPoint x="720" y="1640" />
              <mxPoint x="720" y="1340" />
              <mxPoint x="600" y="1340" />
            </Array>
          </mxGeometry>
        </mxCell>
        <mxCell id="soYMh1Tp0emqZ4fhd2WR-16" value="" style="endArrow=classic;html=1;rounded=0;entryX=0.289;entryY=0.98;entryDx=0;entryDy=0;entryPerimeter=0;" parent="1" target="soYMh1Tp0emqZ4fhd2WR-1" edge="1">
          <mxGeometry width="50" height="50" relative="1" as="geometry">
            <mxPoint x="310" y="1640" as="sourcePoint" />
            <mxPoint x="780" y="1640" as="targetPoint" />
            <Array as="points">
              <mxPoint x="660" y="1640" />
              <mxPoint x="660" y="1360" />
              <mxPoint x="550" y="1360" />
            </Array>
          </mxGeometry>
        </mxCell>
        <mxCell id="soYMh1Tp0emqZ4fhd2WR-18" value="" style="endArrow=classic;html=1;rounded=0;exitX=0.03;exitY=0.5;exitDx=0;exitDy=0;exitPerimeter=0;entryX=0.875;entryY=0.75;entryDx=0;entryDy=0;entryPerimeter=0;" parent="1" source="D216uD_KerBpteAYRp9T-51" target="soYMh1Tp0emqZ4fhd2WR-1" edge="1">
          <mxGeometry width="50" height="50" relative="1" as="geometry">
            <mxPoint x="750" y="1330" as="sourcePoint" />
            <mxPoint x="670" y="1230" as="targetPoint" />
            <Array as="points">
              <mxPoint x="630" y="1320" />
            </Array>
          </mxGeometry>
        </mxCell>
        <mxCell id="soYMh1Tp0emqZ4fhd2WR-22" value="&lt;font style=&quot;font-size: 14px;&quot;&gt;Core switch will be in the administrative building&amp;nbsp;&lt;/font&gt;" style="text;html=1;strokeColor=none;fillColor=none;align=center;verticalAlign=middle;whiteSpace=wrap;rounded=0;" parent="1" vertex="1">
          <mxGeometry x="640" y="990" width="60" height="30" as="geometry" />
        </mxCell>
      </root>
    </mxGraphModel>
  </diagram>
</mxfile>
